<mxfile host="app.diagrams.net" modified="2022-11-25T05:58:39.876Z" agent="5.0 (Macintosh; Intel Mac OS X 10_15_7) AppleWebKit/537.36 (KHTML, like Gecko) Chrome/107.0.0.0 Safari/537.36" etag="Lwen-esTA2V2j4XSk3Xr" version="20.5.3" type="github">
  <diagram id="nCMCtI_0fGmXLX7nTU4V" name="第 1 页">
    <mxGraphModel dx="926" dy="752" grid="1" gridSize="10" guides="1" tooltips="1" connect="1" arrows="1" fold="1" page="1" pageScale="1" pageWidth="827" pageHeight="1169" math="0" shadow="0">
      <root>
        <mxCell id="0" />
        <mxCell id="1" parent="0" />
        <mxCell id="FMdcrydQJysGpQUzG1MX-5" value="" style="edgeStyle=orthogonalEdgeStyle;rounded=0;orthogonalLoop=1;jettySize=auto;html=1;" edge="1" parent="1" source="_bKhbQ4zFmAfNgiu8Np8-1" target="_bKhbQ4zFmAfNgiu8Np8-2">
          <mxGeometry relative="1" as="geometry" />
        </mxCell>
        <mxCell id="FMdcrydQJysGpQUzG1MX-26" value="ast compiler" style="edgeLabel;html=1;align=center;verticalAlign=middle;resizable=0;points=[];labelBorderColor=#CCCCCC;" vertex="1" connectable="0" parent="FMdcrydQJysGpQUzG1MX-5">
          <mxGeometry x="-0.1402" relative="1" as="geometry">
            <mxPoint x="3" as="offset" />
          </mxGeometry>
        </mxCell>
        <mxCell id="_bKhbQ4zFmAfNgiu8Np8-1" value="Python" style="rounded=1;whiteSpace=wrap;html=1;fillColor=#d5e8d4;strokeColor=#82b366;" parent="1" vertex="1">
          <mxGeometry x="10" y="130" width="110" height="40" as="geometry" />
        </mxCell>
        <mxCell id="FMdcrydQJysGpQUzG1MX-6" value="" style="edgeStyle=orthogonalEdgeStyle;rounded=0;orthogonalLoop=1;jettySize=auto;html=1;" edge="1" parent="1" source="_bKhbQ4zFmAfNgiu8Np8-2" target="_bKhbQ4zFmAfNgiu8Np8-3">
          <mxGeometry relative="1" as="geometry" />
        </mxCell>
        <mxCell id="FMdcrydQJysGpQUzG1MX-27" value="Optimizer" style="edgeLabel;html=1;align=center;verticalAlign=middle;resizable=0;points=[];labelBorderColor=#CCCCCC;" vertex="1" connectable="0" parent="FMdcrydQJysGpQUzG1MX-6">
          <mxGeometry x="-0.0189" y="-1" relative="1" as="geometry">
            <mxPoint as="offset" />
          </mxGeometry>
        </mxCell>
        <mxCell id="_bKhbQ4zFmAfNgiu8Np8-2" value="Triton IR" style="rounded=1;whiteSpace=wrap;html=1;fillColor=#f8cecc;strokeColor=#b85450;" parent="1" vertex="1">
          <mxGeometry x="227" y="130" width="110" height="40" as="geometry" />
        </mxCell>
        <mxCell id="FMdcrydQJysGpQUzG1MX-7" value="" style="edgeStyle=orthogonalEdgeStyle;rounded=0;orthogonalLoop=1;jettySize=auto;html=1;" edge="1" parent="1" source="_bKhbQ4zFmAfNgiu8Np8-3" target="Wp2HzmDEKK12YRUkGRcB-1">
          <mxGeometry relative="1" as="geometry" />
        </mxCell>
        <mxCell id="FMdcrydQJysGpQUzG1MX-28" value="Conversion" style="edgeLabel;html=1;align=center;verticalAlign=middle;resizable=0;points=[];labelBorderColor=#CCCCCC;" vertex="1" connectable="0" parent="FMdcrydQJysGpQUzG1MX-7">
          <mxGeometry x="-0.0841" relative="1" as="geometry">
            <mxPoint as="offset" />
          </mxGeometry>
        </mxCell>
        <mxCell id="_bKhbQ4zFmAfNgiu8Np8-3" value="TritonGPU IR" style="rounded=1;whiteSpace=wrap;html=1;fillColor=#f8cecc;strokeColor=#b85450;" parent="1" vertex="1">
          <mxGeometry x="443" y="130" width="110" height="40" as="geometry" />
        </mxCell>
        <mxCell id="FMdcrydQJysGpQUzG1MX-8" style="edgeStyle=orthogonalEdgeStyle;rounded=0;orthogonalLoop=1;jettySize=auto;html=1;exitX=0.5;exitY=1;exitDx=0;exitDy=0;entryX=0.5;entryY=0;entryDx=0;entryDy=0;" edge="1" parent="1" source="Wp2HzmDEKK12YRUkGRcB-1" target="Wp2HzmDEKK12YRUkGRcB-2">
          <mxGeometry relative="1" as="geometry" />
        </mxCell>
        <mxCell id="FMdcrydQJysGpQUzG1MX-29" value="TranslateLLVMIR" style="edgeLabel;html=1;align=center;verticalAlign=middle;resizable=0;points=[];labelBorderColor=#CCCCCC;" vertex="1" connectable="0" parent="FMdcrydQJysGpQUzG1MX-8">
          <mxGeometry x="0.0066" y="-1" relative="1" as="geometry">
            <mxPoint as="offset" />
          </mxGeometry>
        </mxCell>
        <mxCell id="Wp2HzmDEKK12YRUkGRcB-1" value="LLVM dialect" style="rounded=1;whiteSpace=wrap;html=1;fillColor=#dae8fc;strokeColor=#6c8ebf;" parent="1" vertex="1">
          <mxGeometry x="660" y="130" width="110" height="40" as="geometry" />
        </mxCell>
        <mxCell id="FMdcrydQJysGpQUzG1MX-9" value="" style="edgeStyle=orthogonalEdgeStyle;rounded=0;orthogonalLoop=1;jettySize=auto;html=1;" edge="1" parent="1" source="Wp2HzmDEKK12YRUkGRcB-2" target="Wp2HzmDEKK12YRUkGRcB-3">
          <mxGeometry relative="1" as="geometry" />
        </mxCell>
        <mxCell id="FMdcrydQJysGpQUzG1MX-30" value="NVPTX" style="edgeLabel;html=1;align=center;verticalAlign=middle;resizable=0;points=[];labelBorderColor=#CCCCCC;" vertex="1" connectable="0" parent="FMdcrydQJysGpQUzG1MX-9">
          <mxGeometry x="-0.2154" relative="1" as="geometry">
            <mxPoint as="offset" />
          </mxGeometry>
        </mxCell>
        <mxCell id="Wp2HzmDEKK12YRUkGRcB-2" value="LLVM IR" style="rounded=1;whiteSpace=wrap;html=1;fillColor=#f5f5f5;fontColor=#333333;strokeColor=#666666;" parent="1" vertex="1">
          <mxGeometry x="110" y="230" width="110" height="40" as="geometry" />
        </mxCell>
        <mxCell id="FMdcrydQJysGpQUzG1MX-10" value="" style="edgeStyle=orthogonalEdgeStyle;rounded=0;orthogonalLoop=1;jettySize=auto;html=1;" edge="1" parent="1" source="Wp2HzmDEKK12YRUkGRcB-3" target="Wp2HzmDEKK12YRUkGRcB-4">
          <mxGeometry relative="1" as="geometry" />
        </mxCell>
        <mxCell id="FMdcrydQJysGpQUzG1MX-31" value="ptxas" style="edgeLabel;html=1;align=center;verticalAlign=middle;resizable=0;points=[];labelBorderColor=#CCCCCC;" vertex="1" connectable="0" parent="FMdcrydQJysGpQUzG1MX-10">
          <mxGeometry x="-0.1231" y="1" relative="1" as="geometry">
            <mxPoint as="offset" />
          </mxGeometry>
        </mxCell>
        <mxCell id="Wp2HzmDEKK12YRUkGRcB-3" value="PTX" style="rounded=1;whiteSpace=wrap;html=1;fillColor=#f5f5f5;fontColor=#333333;strokeColor=#666666;" parent="1" vertex="1">
          <mxGeometry x="350" y="230" width="110" height="40" as="geometry" />
        </mxCell>
        <mxCell id="Wp2HzmDEKK12YRUkGRcB-4" value="cubin" style="rounded=1;whiteSpace=wrap;html=1;fillColor=#f5f5f5;fontColor=#333333;strokeColor=#666666;" parent="1" vertex="1">
          <mxGeometry x="590" y="230" width="110" height="40" as="geometry" />
        </mxCell>
      </root>
    </mxGraphModel>
  </diagram>
</mxfile>
